<?xml version="1.0" encoding="utf-8"?>
<!DOCTYPE svg PUBLIC "-//W3C//DTD SVG 1.0//EN" "http://www.w3.org/TR/2001/REC-SVG-20010904/DTD/svg10.dtd">
<svg version="1.0" xmlns="http://www.w3.org/2000/svg" width="762px" height="148px" viewBox="0 0 762 148" preserveAspectRatio="xMidYMid meet">
 <g fill="#000002">
  <path d="M281 124.40 c-5.50 -1.70 -9.95 -5.50 -12.55 -10.50 -2.95 -5.75 -2.95 -5.90 -2.95 -43.95 0 -40.35 -0.30 -37.65 4.75 -42.40 5.05 -4.70 4.65 -4.60 28.05 -4.45 l19.95 0.15 2.70 1.50 c1.60 0.90 3.20 2.30 4 3.45 1.25 1.90 1.30 2.30 1.45 10.45 0.10 5.75 0 8.65 -0.40 9.05 -0.35 0.35 -3.45 0.60 -8.05 0.75 -9.25 0.20 -9.45 0.10 -9.45 -4.95 0 -2.60 -0.25 -3.65 -0.95 -4.55 -0.95 -1.20 -1.10 -1.20 -9.65 -1.20 -9.45 0 -10.65 0.30 -12.60 2.90 -1.05 1.40 -1.05 1.90 -1.20 29.90 -0.10 28.25 -0.10 28.55 0.95 30.40 1.25 2.20 5.10 4.70 8.60 5.60 6.60 1.60 16.15 -2 18.15 -6.90 0.45 -1.05 0.70 -3.75 0.70 -7.75 0 -8.80 0.45 -8.40 -9.45 -8.40 -6 0 -8.10 -0.15 -8.85 -0.70 -0.85 -0.65 -0.95 -1.35 -0.95 -6.80 0 -8.70 -1.55 -8 18.50 -8 9.30 0 16.75 0.20 17.45 0.50 l1.30 0.50 0 26.90 c0 25.45 -0.05 27 -0.90 27.75 -0.75 0.70 -2 0.85 -5.90 0.85 -4.80 0 -5.05 -0.05 -6.30 -1.35 -0.70 -0.80 -1.90 -2.40 -2.65 -3.65 -0.75 -1.25 -1.45 -2.30 -1.50 -2.40 -0.10 -0.10 -1.45 0.85 -3.05 2.15 -3.35 2.75 -7.85 4.95 -11.60 5.70 -4.55 0.95 -13.85 0.65 -17.60 -0.55z"/>
  <path d="M31.60 123.70 l-1.10 -0.75 0 -49.40 c0 -44.10 0.10 -49.50 0.80 -50.05 1.10 -0.95 39.15 -0.70 42.95 0.25 7.35 1.95 13.10 6.45 15.25 12 0.95 2.40 1.20 4.25 1.40 9.50 0.35 10.30 -1.20 14.75 -7.10 20.40 l-3.05 2.90 1.95 1.60 c7.55 6.15 8.60 7.25 10.45 10.90 2.35 4.65 3 9.15 2.35 16.50 -0.70 8.60 -2.60 13.35 -7.35 18.50 -2.15 2.30 -3.80 3.50 -6.40 4.70 -7.45 3.40 -10.25 3.75 -31.60 3.75 -14.95 0 -17.60 -0.10 -18.55 -0.80z m37.65 -18.85 c1.70 -0.90 5.35 -4.55 6.20 -6.25 0.85 -1.55 2.05 -5.65 2.05 -6.80 0 -0.50 -0.45 -2.55 -1.05 -4.50 -0.90 -3.05 -1.45 -3.95 -3.90 -6.35 -2.60 -2.55 -3.25 -2.90 -6.45 -3.65 -2.10 -0.45 -5.80 -0.80 -9 -0.80 -4.75 0 -5.65 0.15 -6.80 1.05 l-1.30 1 0 12.65 c0 12.90 0.10 13.75 2 14.50 0.40 0.15 4.35 0.20 8.75 0.10 6.05 -0.10 8.40 -0.35 9.50 -0.95z m-3 -43.20 c2.25 -1.15 4.80 -4.40 5.75 -7.35 0.80 -2.55 0.45 -7.15 -0.80 -9.60 -1.30 -2.45 -5.10 -5.40 -8.15 -6.25 -1.25 -0.40 -4.45 -0.70 -7.10 -0.70 -7.25 0 -6.95 -0.60 -6.95 12.60 0 13.65 -0.55 12.85 8.70 12.55 5.35 -0.20 6.90 -0.45 8.55 -1.25z"/>
  <path d="M106.05 123.45 l-1.05 -1.15 0 -49.05 c0 -37.50 0.15 -49.20 0.60 -49.65 0.45 -0.45 5.65 -0.60 20.40 -0.60 21.70 0 22.80 0.10 28.50 3 7.90 4 11 9.75 11 20.60 0 8.70 -1.75 13.50 -6.85 18.95 l-3.15 3.30 3.40 2.65 c6.60 5.25 8.75 8 10.35 13.35 1 3.30 1 14 -0.05 18.50 -1.80 8 -6.70 14.50 -13.15 17.45 -7.15 3.35 -7.30 3.35 -29.10 3.60 l-19.85 0.20 -1.05 -1.15z m38.35 -19.15 c2.95 -1.50 5.20 -4.30 6.70 -8.20 1.95 -5.10 0.35 -11.05 -4.20 -15.45 -3.30 -3.25 -5.05 -3.75 -13.40 -4.05 -6.90 -0.20 -7.30 -0.15 -8.60 0.90 l-1.40 1.05 0 12.65 c0 12.90 0.10 13.75 2 14.50 0.40 0.15 4.25 0.20 8.50 0.10 7.25 -0.15 7.90 -0.20 10.40 -1.50z m-3.60 -42.70 c5.50 -2.80 7.90 -10.80 5 -16.50 -1.40 -2.75 -2.75 -4.10 -5.65 -5.60 -4.25 -2.20 -14.55 -2.65 -16 -0.70 -0.50 0.65 -0.65 3.55 -0.65 11.55 0 13.65 -0.55 12.90 8.70 12.55 5.30 -0.20 6.95 -0.45 8.60 -1.30z"/>
  <path d="M363.35 123.60 c-0.80 -0.85 -0.85 -4.40 -0.85 -40.75 0 -39.20 0 -39.85 -1 -40.85 -0.95 -0.95 -1.65 -1 -10.75 -1 -9.10 0 -9.75 -0.05 -10.25 -0.95 -0.75 -1.50 -0.65 -15.80 0.15 -16.45 0.40 -0.35 10.65 -0.55 31.80 -0.65 28.45 -0.05 31.20 0 31.95 0.75 0.70 0.70 0.85 2 0.85 8.25 0 5.55 -0.15 7.60 -0.70 8.20 -0.60 0.75 -2 0.85 -11.30 0.85 -9.65 0 -10.65 0.10 -11.40 0.90 -0.80 0.85 -0.85 4.40 -0.85 40.65 0 35.15 -0.10 39.85 -0.80 40.85 -0.70 1.05 -1.05 1.10 -8.40 1.10 -6.75 0 -7.75 -0.10 -8.45 -0.90z"/>
  <path d="M474.75 123.75 c-6.50 -0.95 -10.45 -2.45 -12.80 -4.90 -2.70 -2.80 -4.45 -9.40 -4.45 -16.95 0 -5.95 -0.10 -5.90 9.35 -5.90 5.55 0 7.65 0.15 8.05 0.65 0.30 0.35 0.80 1.75 1.10 3.05 1 4.50 1.85 5.20 6.70 5.80 3.20 0.40 9.30 -0.20 11.05 -1.10 5.60 -2.90 8.05 -11.50 6 -21.35 -0.90 -4.25 -1.60 -5.80 -3.60 -7.65 -1.50 -1.45 -5 -2.90 -7 -2.90 -1.20 0 -8.50 2.75 -9.35 3.55 -0.80 0.70 -21 0.55 -21.70 -0.15 -0.45 -0.45 -0.60 -6.95 -0.60 -26.15 0 -23.80 0.05 -25.65 0.90 -26.30 0.70 -0.60 5.50 -0.65 30.35 -0.45 l29.50 0.25 0 7 0 7 -20.05 0.25 c-18.85 0.25 -20.15 0.30 -21.15 1.20 -1 0.90 -1.05 1.40 -1.05 11.40 0 6.80 0.20 10.40 0.50 10.40 0.30 0 1.60 -0.55 2.90 -1.20 9.25 -4.60 20.75 -5 28.20 -0.95 4.70 2.55 7.50 6.65 9.50 14.05 0.95 3.45 1.10 5.25 1.10 16.85 0.05 10.80 -0.10 13.50 -0.80 16.10 -2.55 9.10 -8.05 14.75 -17 17.30 -6.35 1.85 -17.25 2.30 -25.65 1.10z"/>
  <path d="M550.25 123.75 c-6.90 -1.25 -10.60 -3.15 -14.50 -7.35 -3 -3.25 -4.85 -6.75 -6.35 -12.30 -0.90 -3.20 -1.10 -5.25 -1.10 -12.10 0 -7.30 0.15 -8.70 1.20 -12.25 1.15 -3.70 1.50 -4.30 5.30 -8.25 l4.10 -4.25 -1.40 -1.70 c-0.80 -0.90 -2.20 -3.05 -3.10 -4.75 l-1.65 -3.05 -0.15 -8.50 c-0.30 -15.95 1.95 -20.15 13.85 -25.45 0.75 -0.35 5.50 -0.55 12.50 -0.55 9.55 0 11.65 0.15 13.70 0.90 3.65 1.30 4.90 2.10 6.95 4.20 4.05 4.20 5.65 9.95 5.65 19.90 -0.05 7.75 -1.05 11.25 -4.60 15.70 l-2.20 2.80 3.20 3 c3.45 3.25 4.65 5.20 6.45 10.55 1 3.05 1.15 4.35 1.10 11.45 -0.05 7.05 -0.20 8.60 -1.40 13 -0.75 2.75 -1.90 6 -2.65 7.25 -1.40 2.50 -6.55 8 -7.45 8 -0.30 0 -0.85 0.30 -1.15 0.70 -0.75 0.90 -6.20 2.60 -10.55 3.30 -4.25 0.65 -11.35 0.55 -15.75 -0.25z m14 -19.10 c7.50 -4.20 9.15 -19 2.80 -25.80 -2.20 -2.40 -4.90 -3.50 -8.45 -3.50 -2.80 0 -3.45 0.25 -5.90 1.90 -1.90 1.30 -3.15 2.65 -3.95 4.20 -4.20 8.35 -1.90 19.65 4.65 23 2.70 1.40 8.50 1.50 10.85 0.20z m-0.85 -46.85 c2.35 -2.15 3.60 -5.55 3.60 -9.70 0 -4.90 -1.65 -8 -4.95 -9.40 -6.55 -2.75 -12.05 2.70 -11.45 11.30 0.45 6.35 3.20 9.50 8.20 9.50 2.35 0 2.95 -0.20 4.60 -1.70z"/>
  <path d="M616.75 123.90 c-7.15 -0.80 -12.10 -2.90 -14.40 -6.25 -2.10 -3.05 -2.85 -5.95 -3.40 -13.15 -0.65 -8.85 -1.05 -8.50 9 -8.50 4 0 7.60 0.20 7.95 0.45 0.40 0.20 0.90 1.40 1.15 2.60 1.20 5.60 2.60 6.55 9.65 6.55 6.15 0 8.30 -0.70 11 -3.60 2.95 -3.15 3.55 -5.35 3.55 -13 -0.05 -9.85 -2.05 -14 -7.55 -15.75 -3.35 -1.05 -5.40 -0.75 -9.45 1.40 l-3 1.60 -10.70 0.15 c-6.50 0.10 -10.85 0 -11.15 -0.30 -0.30 -0.30 -0.50 -10.05 -0.50 -26.15 0.05 -20.45 0.15 -25.75 0.70 -26.25 0.50 -0.50 6.65 -0.65 29.85 -0.75 27.70 -0.05 29.25 0 29.90 0.85 0.85 1.20 0.90 12.25 0.05 13.10 -0.45 0.45 -5.45 0.60 -19.50 0.60 -15.40 0 -19.25 0.15 -20.65 0.70 l-1.75 0.75 0 10.75 c0 5.95 0.10 10.80 0.25 10.80 0.10 0 2.20 -0.85 4.60 -1.95 5.40 -2.35 8.55 -3.05 13.55 -3.05 7.15 0.05 13.15 2.05 16.70 5.60 2.55 2.55 4.25 6.15 5.80 12.10 1.20 4.70 1.25 5.90 1.30 16.30 0 9.90 -0.15 11.75 -1.10 15.35 -2.40 9.35 -6.80 14.35 -14.90 17.15 -6.40 2.25 -17.20 3 -26.95 1.90z"/>
  <path d="M682.15 124 c-4.90 -1 -8.85 -4.25 -11.20 -9.25 l-1.45 -3 0 -38.05 c0 -41.80 -0.10 -40.55 3.05 -44.35 0.85 -1.05 2.95 -2.85 4.65 -4 l3.05 -2.10 18.75 -0.15 c13.10 -0.10 19.35 0 20.75 0.40 2.80 0.80 5.45 2.75 7.80 5.65 1.75 2.25 1.95 2.75 1.95 5.35 l0 2.90 -4.60 4.35 -4.65 4.30 -2.75 -0.15 -2.75 -0.15 -0.30 -2.75 c-0.45 -4.15 -1 -4.85 -4.05 -5.25 -1.45 -0.20 -6.60 -0.25 -11.45 -0.15 -7.85 0.15 -8.95 0.25 -9.90 1.10 -1.05 0.95 -1.05 1.05 -1.05 33.35 l0 32.40 1.10 0.75 c0.95 0.65 2.90 0.80 11.25 0.80 9.50 0 10.20 -0.05 11.15 -1 0.95 -0.95 1 -1.65 1 -25.45 l0 -24.45 7.05 -6.30 c6.50 -5.80 7.20 -6.30 9 -6.30 l1.95 0 0 34.40 c0 30.90 -0.10 34.65 -0.85 36.90 -1.10 3.20 -6.50 8.85 -9.40 9.75 -2.35 0.75 -34.70 1.15 -38.10 0.45z"/>
 </g>
 <g fill="#fffffe">
  <path d="M0 74 l0 -74 381 0 381 0 0 74 0 74 -381 0 -381 0 0 -74z m297.10 49.45 c3.95 -0.75 9.35 -3.60 12.80 -6.75 1.70 -1.50 3.35 -2.60 3.65 -2.45 0.30 0.20 1.35 1.65 2.30 3.20 3.25 5.15 3.85 5.55 7.85 5.55 5.80 0 5.30 2.45 5.30 -27.10 l0 -25.40 -1.30 -0.50 c-0.70 -0.30 -7.60 -0.50 -15.95 -0.50 -18 0 -17 -0.40 -17 6.50 0 6.15 -0.25 6 9.80 6 10.05 0 9.45 -0.60 9.45 9.90 0 5.30 -0.20 8.15 -0.70 9.25 -2.15 5.15 -12.25 8.70 -20.15 7.05 -4.25 -0.85 -8.20 -3.25 -9.60 -5.75 -1.05 -1.85 -1.05 -2.10 -0.95 -31.90 0.15 -29.50 0.15 -30 1.20 -31.40 2 -2.70 3 -2.90 14.10 -2.90 10.10 0 10.20 0 11.15 1.20 0.70 0.90 0.95 1.95 0.95 4.55 0 4.95 0.40 5.20 8 4.90 3.30 -0.10 6.25 -0.45 6.55 -0.75 0.35 -0.35 0.45 -3 0.35 -7.50 -0.15 -6.55 -0.25 -7.10 -1.45 -8.95 -0.80 -1.15 -2.40 -2.55 -4 -3.45 l-2.70 -1.50 -18.45 -0.15 c-21.70 -0.15 -21.55 -0.20 -26.55 4.45 -5.05 4.75 -4.75 2.25 -4.75 40.90 0 36.40 0.05 36.70 2.95 42.45 2.60 5 7.05 8.80 12.55 10.50 3.70 1.20 10.30 1.45 14.60 0.55z m-227.45 -1 c7.60 -1.10 13.05 -3.65 17 -7.90 5.05 -5.50 7.35 -11.75 7.40 -20.35 0.05 -5.95 -0.50 -8.35 -2.85 -12.50 -1.60 -2.95 -3.45 -4.75 -9.80 -9.85 -3.35 -2.70 -3.25 -3.70 0.80 -7.65 5.80 -5.60 7.60 -10.35 7.20 -18.95 -0.35 -6.75 -1.65 -10.05 -5.40 -13.80 -2.95 -3 -6.60 -4.95 -11.40 -6.20 -3.60 -0.95 -38.80 -1.15 -39.90 -0.20 -0.60 0.50 -0.70 7.85 -0.70 48.50 l0 47.90 1.10 0.75 c0.95 0.70 3.45 0.80 17.05 0.80 8.75 0 17.55 -0.25 19.50 -0.55z m78.35 -0.60 c5.90 -1.70 10.20 -4.10 13.20 -7.40 5 -5.55 7.30 -12.10 7.30 -20.85 0 -5.40 -0.75 -8.40 -2.95 -12.25 -1.60 -2.85 -2.95 -4.15 -8.40 -8.55 -2.35 -1.90 -3.65 -3.25 -3.65 -3.90 0 -0.60 1.50 -2.60 3.40 -4.60 3.60 -3.80 5.60 -7.40 6.55 -11.70 1.20 -5.75 0.25 -13.70 -2.20 -17.90 -2.40 -4.10 -8 -7.85 -14.10 -9.45 -3.75 -1 -39.10 -1.10 -40.05 -0.15 -0.45 0.45 -0.60 11.85 -0.60 48.15 l0 47.55 1.05 1.15 1.05 1.15 18.35 -0.20 c14.80 -0.20 18.85 -0.40 21.05 -1.05z m230.70 0.05 c0.70 -1 0.80 -5.70 0.80 -40.85 0 -36.25 0.05 -39.80 0.85 -40.65 0.75 -0.80 1.75 -0.90 11.40 -0.90 9.30 0 10.70 -0.10 11.30 -0.85 1.05 -1.25 1 -12.35 -0.10 -13.40 -0.70 -0.70 -4.05 -0.80 -30.45 -0.75 -20.80 0 -29.85 0.20 -30.35 0.55 -0.80 0.70 -0.95 12 -0.15 13.50 0.50 0.90 1.15 0.95 10.25 0.95 9.10 0 9.80 0.05 10.75 1 1 1 1 1.65 1 40.85 0 36.35 0.05 39.90 0.85 40.75 0.70 0.80 1.65 0.90 6.95 0.90 5.80 0 6.20 -0.05 6.90 -1.10z m113.30 0.55 c8.60 -1.05 13.95 -3.35 18.10 -7.85 3 -3.25 4.50 -6 5.80 -10.75 0.70 -2.55 0.85 -5.20 0.80 -14.60 -0.05 -10.05 -0.15 -12 -1.10 -15.35 -2.15 -7.80 -5 -11.85 -10.25 -14.35 -6.65 -3.20 -13.80 -3.20 -21.40 0 -6.40 2.70 -7.75 3.15 -8.60 2.80 -0.75 -0.30 -0.85 -1.55 -0.85 -12.25 0 -11.50 0.05 -12 1.05 -12.90 1 -0.90 2.30 -0.95 21.15 -1.20 l20.05 -0.25 0 -5.50 0 -5.50 -28.15 -0.25 c-25.25 -0.20 -28.25 -0.15 -28.90 0.55 -0.60 0.65 -0.70 4.70 -0.70 24.75 0 18 0.15 24.15 0.60 24.60 0.70 0.70 17.90 0.85 18.70 0.15 0.25 -0.20 2.20 -1.10 4.30 -2 7.35 -3 14.35 -1.40 17.15 4 1.20 2.25 2.25 8.50 2.25 13.20 -0.05 8.55 -2.25 13.85 -6.75 16.15 -1.75 0.90 -9.05 1.65 -12.40 1.35 -6.20 -0.65 -7.35 -1.45 -8.35 -6 -0.30 -1.35 -0.80 -2.75 -1.10 -3.10 -0.35 -0.45 -2.25 -0.65 -6.55 -0.65 -7.35 0 -7.85 0.30 -7.85 4.40 0 6.05 1.95 12.90 4.45 15.45 2.35 2.45 6.30 3.95 12.80 4.90 5.70 0.80 10.40 0.90 15.75 0.20z m72.50 0.05 c4.35 -0.70 9.80 -2.40 10.55 -3.30 0.30 -0.40 0.85 -0.70 1.15 -0.70 0.90 0 6.05 -5.50 7.45 -8 0.75 -1.25 1.90 -4.50 2.65 -7.25 1.85 -6.95 2 -16.30 0.30 -21.45 -1.80 -5.35 -3 -7.30 -6.50 -10.55 -4 -3.75 -4.10 -4.65 -0.95 -8.70 3.30 -4.25 4.55 -8.15 4.55 -14.30 0.05 -8.35 -1.80 -14.45 -5.60 -18.40 -2.05 -2.10 -3.30 -2.90 -6.95 -4.20 -2 -0.75 -4.10 -0.90 -12.20 -0.90 -5.90 0 -10.25 0.20 -11 0.55 -4.75 2.10 -6.45 3.15 -8.35 4.90 -4.40 4.15 -5.75 8.90 -5.50 19.05 0.20 7.80 0.60 9.10 4.85 14.75 1.15 1.50 2.05 3.05 2.05 3.45 0 0.40 -2 2.75 -4.40 5.25 -4.15 4.30 -4.45 4.75 -5.60 8.55 -1 3.35 -1.20 5.05 -1.15 10.75 0 7.40 0.90 11.90 3.40 17.25 2.45 5.15 8.10 10.15 13.40 11.85 5.25 1.65 12.45 2.25 17.85 1.40z m70 -0.25 c10.75 -1.60 16.70 -5.25 20.35 -12.40 2.55 -5.10 3.30 -9.70 3.30 -20.35 0 -8.80 -0.10 -10.25 -1.25 -14.80 -2.70 -10.65 -6.75 -15.05 -15.65 -17 -6.15 -1.35 -10.35 -0.75 -17.95 2.60 -2.70 1.20 -5.45 2.20 -6.10 2.20 l-1.20 0 0 -12.55 0 -12.50 1.75 -0.75 c1.40 -0.55 5.25 -0.70 20.65 -0.70 14.05 0 19.05 -0.15 19.50 -0.60 0.85 -0.85 0.80 -8.95 -0.05 -10.05 -0.55 -0.80 -2.65 -0.90 -28.35 -0.85 -21.75 0 -27.85 0.15 -28.35 0.65 -0.50 0.50 -0.65 5.95 -0.70 24.80 0 14.40 0.20 24.40 0.45 24.65 0.30 0.30 4.40 0.40 9.65 0.30 l9.20 -0.15 3.15 -1.70 c4 -2.15 8.20 -2.60 12.25 -1.30 3.40 1.05 5.05 2.70 6.45 6.55 0.95 2.55 1.10 3.95 1.15 10.70 0 9.30 -0.45 11.20 -3.55 14.50 -2.85 3.05 -5.10 3.70 -12.70 3.70 -8.40 -0.05 -9.70 -0.85 -10.95 -6.65 -0.25 -1.20 -0.75 -2.40 -1.15 -2.60 -0.35 -0.25 -3.25 -0.45 -6.45 -0.45 -7.95 0 -7.95 0 -7.40 7 0.75 10.15 3.50 14.25 11.20 16.70 5.40 1.70 15.45 2.20 22.75 1.05z m84.25 -0.20 c1.30 -0.40 3.10 -1.80 5.30 -3.95 5.25 -5.35 4.95 -2.85 4.95 -41.20 0 -18.90 -0.20 -32.90 -0.45 -32.90 -0.25 0 -3.60 2.85 -7.50 6.30 l-7.05 6.30 0 24.45 c0 23.80 -0.05 24.50 -1 25.45 -0.95 0.95 -1.65 1 -12.65 1 -9.70 0 -11.80 -0.15 -12.75 -0.80 l-1.10 -0.75 0 -33.90 c0 -33.80 0 -33.90 1.05 -34.85 0.95 -0.85 2.05 -0.95 11.40 -1.10 5.65 -0.10 11.50 -0.05 12.95 0.15 3.05 0.40 3.60 1.10 4.05 5.25 0.25 2.45 0.45 2.75 1.55 2.90 1.85 0.20 10.50 -7.90 10.50 -9.90 0 -1.65 -3.15 -5.80 -5.85 -7.60 -3.45 -2.35 -4.70 -2.50 -23.15 -2.30 l-17.25 0.15 -3.05 2.10 c-1.70 1.15 -3.80 2.95 -4.65 4 -3.15 3.80 -3.05 2.70 -3.05 42.85 l0 36.55 1.45 3 c2.35 5 6.30 8.25 11.20 9.25 3.35 0.70 32.75 0.30 35.10 -0.45z"/>
  <path d="M49.50 107.20 c-1.90 -0.80 -2 -1.55 -2 -16 l0 -14.15 1.30 -1 c1.20 -0.95 2 -1.05 8.30 -1.05 4.60 0 8.15 0.25 10.50 0.80 3.20 0.75 3.85 1.10 6.45 3.65 2.45 2.40 3 3.30 3.90 6.35 1.20 4.15 1.30 7.50 0.35 10.80 -1.05 3.30 -1.65 4.35 -4 6.80 -3.45 3.65 -3.85 3.75 -14.55 3.95 -5.20 0.05 -9.85 0 -10.25 -0.15z"/>
  <path d="M48.55 63.55 c-1 -1 -1.05 -1.50 -1.05 -13.20 0 -15.15 -0.65 -14.10 8.45 -14.10 7.40 0 9.95 0.60 13.30 3.15 3.40 2.60 4.45 4.90 4.70 10.05 0.20 4.90 -0.45 7.40 -2.65 10.45 -2.65 3.70 -4.30 4.25 -13.60 4.50 -7.70 0.20 -8.15 0.15 -9.15 -0.85z"/>
  <path d="M124 107.20 c-1.90 -0.75 -2 -1.55 -2 -16 l0 -14.15 1.40 -1.05 c1.30 -1.05 1.70 -1.10 10.10 -0.90 6.75 0.20 9.20 0.45 10.75 1.10 2.25 0.95 5.95 4.35 7.10 6.50 4.40 8.35 1.80 19.40 -5.45 23.10 -2.55 1.35 -2.95 1.40 -11.90 1.55 -5.10 0.05 -9.60 0 -10 -0.15z"/>
  <path d="M123.05 63.55 c-1 -1 -1.05 -1.50 -1.05 -13.20 0 -9.55 0.15 -12.35 0.70 -13.10 0.55 -0.80 1.50 -1 5.40 -1.15 10.50 -0.45 16.30 1.80 19.20 7.50 1 2 1.20 3.10 1.20 6.90 0 4.90 -0.55 6.85 -2.80 9.80 -2.50 3.25 -4.40 3.85 -13.50 4.10 -7.70 0.20 -8.10 0.20 -9.15 -0.85z"/>
  <path d="M555.15 107 c-6.25 -1.30 -9.45 -5.95 -10 -14.35 -0.55 -8.15 1.50 -13.75 6.10 -16.90 2.80 -1.95 2.90 -1.95 7.40 -1.95 3.75 0 5 0.20 6.60 1.05 5.40 2.85 7.50 7.85 7.15 17 -0.15 4.20 -0.45 5.95 -1.30 7.90 -1.25 2.70 -3.60 5.45 -5.60 6.50 -1.65 0.85 -7.70 1.30 -10.35 0.75z"/>
  <path d="M555.85 61.05 c-4.60 -0.95 -6.45 -4 -6.75 -11.15 -0.30 -7.10 1.20 -10.75 5.30 -12.85 1.60 -0.85 7 -0.75 9.10 0.15 3.70 1.50 5 4.40 5 10.90 0 3.15 -0.25 5.45 -0.85 7.05 -1 2.80 -4.05 5.85 -5.85 5.85 -0.65 0 -1.80 0.10 -2.60 0.20 -0.80 0.15 -2.30 0.05 -3.35 -0.15z"/>
 </g>
</svg>